<mxfile host="app.diagrams.net" modified="2023-09-25T09:32:39.677Z" agent="Mozilla/5.0 (X11; Linux x86_64) AppleWebKit/537.36 (KHTML, like Gecko) Chrome/117.0.0.0 Safari/537.36" etag="WA7Mue9b3XcAXEsL5xFC" version="21.7.5" type="google">
  <diagram name="Page-1" id="NqgN_ezpLqx1ndspPK2S">
    <mxGraphModel grid="1" page="1" gridSize="10" guides="1" tooltips="1" connect="1" arrows="1" fold="1" pageScale="1" pageWidth="850" pageHeight="1100" math="0" shadow="0">
      <root>
        <mxCell id="0" />
        <mxCell id="1" parent="0" />
        <mxCell id="ebc6phXdvRB4N1Q1j6TX-2" value="Message or command..." style="html=1;shadow=0;dashed=0;shape=mxgraph.bootstrap.rrect;rSize=5;strokeColor=#CED4DA;html=1;whiteSpace=wrap;fillColor=#FFFFFF;fontColor=#7D868C;align=left;spacing=15;fontSize=14;" vertex="1" parent="1">
          <mxGeometry x="300" y="610" width="440" height="30" as="geometry" />
        </mxCell>
        <mxCell id="ebc6phXdvRB4N1Q1j6TX-5" value="Send" style="html=1;shadow=0;dashed=0;shape=mxgraph.bootstrap.rightButton;strokeColor=none;gradientColor=inherit;fontColor=#FFFFFF;fillColor=#007FFF;rSize=5;perimeter=none;whiteSpace=wrap;resizeHeight=1;fontSize=14;align=left;spacing=15;" vertex="1" parent="ebc6phXdvRB4N1Q1j6TX-2">
          <mxGeometry x="1" width="80" height="30" relative="1" as="geometry">
            <mxPoint x="-80" as="offset" />
          </mxGeometry>
        </mxCell>
        <mxCell id="ebc6phXdvRB4N1Q1j6TX-7" value="" style="rounded=0;whiteSpace=wrap;html=1;strokeColor=#CED4DA;" vertex="1" parent="1">
          <mxGeometry x="300" y="80" width="440" height="530" as="geometry" />
        </mxCell>
        <mxCell id="ebc6phXdvRB4N1Q1j6TX-8" value="" style="shape=rect;strokeColor=#CED4DA;fillColor=#ffffff;shadow=0;" vertex="1" parent="1">
          <mxGeometry x="40" y="80" width="260" height="280" as="geometry" />
        </mxCell>
        <mxCell id="ebc6phXdvRB4N1Q1j6TX-9" value="Kanál 1" style="text;verticalAlign=middle;spacing=0;spacingLeft=16;fontSize=15;resizeWidth=1;whiteSpace=wrap;html=1;" vertex="1" parent="ebc6phXdvRB4N1Q1j6TX-8">
          <mxGeometry width="260" height="42" relative="1" as="geometry" />
        </mxCell>
        <mxCell id="ebc6phXdvRB4N1Q1j6TX-10" value="Kanál 2" style="text;verticalAlign=middle;spacing=0;spacingLeft=16;fontSize=15;resizeWidth=1;whiteSpace=wrap;html=1;fillColor=#E6FFCC;" vertex="1" parent="ebc6phXdvRB4N1Q1j6TX-8">
          <mxGeometry width="260" height="42" relative="1" as="geometry">
            <mxPoint y="42" as="offset" />
          </mxGeometry>
        </mxCell>
        <mxCell id="ebc6phXdvRB4N1Q1j6TX-11" value="Kanál 3" style="text;verticalAlign=middle;spacing=0;spacingLeft=16;fontSize=15;resizeWidth=1;whiteSpace=wrap;html=1;" vertex="1" parent="ebc6phXdvRB4N1Q1j6TX-8">
          <mxGeometry width="260" height="42" relative="1" as="geometry">
            <mxPoint y="84" as="offset" />
          </mxGeometry>
        </mxCell>
        <mxCell id="ebc6phXdvRB4N1Q1j6TX-12" value="Kanál 4" style="text;verticalAlign=middle;spacing=0;spacingLeft=16;fontSize=15;resizeWidth=1;whiteSpace=wrap;html=1;" vertex="1" parent="ebc6phXdvRB4N1Q1j6TX-8">
          <mxGeometry width="260" height="42" relative="1" as="geometry">
            <mxPoint y="126" as="offset" />
          </mxGeometry>
        </mxCell>
        <mxCell id="ebc6phXdvRB4N1Q1j6TX-19" value="" style="shape=rect;strokeColor=none;fillColor=#dddddd;" vertex="1" parent="ebc6phXdvRB4N1Q1j6TX-8">
          <mxGeometry x="1" width="4" height="190" relative="1" as="geometry">
            <mxPoint x="-4" y="55" as="offset" />
          </mxGeometry>
        </mxCell>
        <mxCell id="ebc6phXdvRB4N1Q1j6TX-20" value="&amp;lt;user 1&amp;gt; hello world" style="text;html=1;strokeColor=none;fillColor=none;align=left;verticalAlign=middle;whiteSpace=wrap;rounded=0;fontSize=14;" vertex="1" parent="1">
          <mxGeometry x="310" y="80" width="430" height="30" as="geometry" />
        </mxCell>
        <mxCell id="ebc6phXdvRB4N1Q1j6TX-21" value="&amp;lt;user 2&amp;gt; lorem imsum" style="text;html=1;strokeColor=none;fillColor=none;align=left;verticalAlign=middle;whiteSpace=wrap;rounded=0;fontSize=14;" vertex="1" parent="1">
          <mxGeometry x="310" y="110" width="430" height="30" as="geometry" />
        </mxCell>
        <mxCell id="ebc6phXdvRB4N1Q1j6TX-22" value="&amp;lt;user 2&amp;gt; dolor sit" style="text;html=1;strokeColor=none;fillColor=none;align=left;verticalAlign=middle;whiteSpace=wrap;rounded=0;fontSize=14;" vertex="1" parent="1">
          <mxGeometry x="310" y="140" width="430" height="30" as="geometry" />
        </mxCell>
        <mxCell id="ebc6phXdvRB4N1Q1j6TX-23" value="&amp;lt;user 3&amp;gt; amet" style="text;html=1;strokeColor=none;fillColor=none;align=left;verticalAlign=middle;whiteSpace=wrap;rounded=0;fontSize=14;" vertex="1" parent="1">
          <mxGeometry x="310" y="170" width="430" height="30" as="geometry" />
        </mxCell>
        <mxCell id="ebc6phXdvRB4N1Q1j6TX-24" value="" style="rounded=0;whiteSpace=wrap;html=1;strokeColor=#CED4DA;" vertex="1" parent="1">
          <mxGeometry x="40" y="40" width="700" height="40" as="geometry" />
        </mxCell>
        <mxCell id="ebc6phXdvRB4N1Q1j6TX-25" value="" style="sketch=0;outlineConnect=0;fontColor=#232F3E;gradientColor=none;strokeColor=#232F3E;fillColor=#ffffff;dashed=0;verticalLabelPosition=bottom;verticalAlign=top;align=center;html=1;fontSize=12;fontStyle=0;aspect=fixed;shape=mxgraph.aws4.resourceIcon;resIcon=mxgraph.aws4.user;" vertex="1" parent="1">
          <mxGeometry x="552" y="47" width="25" height="25" as="geometry" />
        </mxCell>
        <mxCell id="ebc6phXdvRB4N1Q1j6TX-26" value="Jano Mrkvička" style="text;html=1;strokeColor=none;fillColor=none;align=center;verticalAlign=middle;whiteSpace=wrap;rounded=0;" vertex="1" parent="1">
          <mxGeometry x="580" y="42" width="90" height="40" as="geometry" />
        </mxCell>
        <mxCell id="ebc6phXdvRB4N1Q1j6TX-27" value="" style="shape=rect;strokeColor=#CED4DA;fillColor=#ffffff;shadow=0;" vertex="1" parent="1">
          <mxGeometry x="40" y="360" width="260" height="280" as="geometry" />
        </mxCell>
        <mxCell id="ebc6phXdvRB4N1Q1j6TX-28" value="Jano Mrkvička" style="text;verticalAlign=middle;spacing=0;spacingLeft=16;fontSize=15;resizeWidth=1;whiteSpace=wrap;html=1;" vertex="1" parent="ebc6phXdvRB4N1Q1j6TX-27">
          <mxGeometry width="260" height="42" relative="1" as="geometry" />
        </mxCell>
        <mxCell id="ebc6phXdvRB4N1Q1j6TX-29" value="user 1" style="text;verticalAlign=middle;spacing=0;spacingLeft=16;fontSize=15;resizeWidth=1;whiteSpace=wrap;html=1;fillColor=none;" vertex="1" parent="ebc6phXdvRB4N1Q1j6TX-27">
          <mxGeometry width="260" height="42" relative="1" as="geometry">
            <mxPoint y="42" as="offset" />
          </mxGeometry>
        </mxCell>
        <mxCell id="ebc6phXdvRB4N1Q1j6TX-32" value="" style="shape=rect;strokeColor=none;fillColor=#dddddd;" vertex="1" parent="ebc6phXdvRB4N1Q1j6TX-27">
          <mxGeometry x="1" width="4" height="190" relative="1" as="geometry">
            <mxPoint x="-4" y="55" as="offset" />
          </mxGeometry>
        </mxCell>
        <mxCell id="ebc6phXdvRB4N1Q1j6TX-33" value="user 2" style="text;verticalAlign=middle;spacing=0;spacingLeft=16;fontSize=15;resizeWidth=1;whiteSpace=wrap;html=1;fillColor=none;" vertex="1" parent="1">
          <mxGeometry x="40" y="442" width="260" height="42" as="geometry" />
        </mxCell>
        <mxCell id="ebc6phXdvRB4N1Q1j6TX-34" value="user 3" style="text;verticalAlign=middle;spacing=0;spacingLeft=16;fontSize=15;resizeWidth=1;whiteSpace=wrap;html=1;fillColor=none;" vertex="1" parent="1">
          <mxGeometry x="40" y="482" width="260" height="42" as="geometry" />
        </mxCell>
        <mxCell id="ebc6phXdvRB4N1Q1j6TX-35" value="Online" style="rounded=1;whiteSpace=wrap;html=1;fillColor=#00CC00;strokeColor=none;fontColor=#FFFFFF;" vertex="1" parent="1">
          <mxGeometry x="220" y="370" width="60" height="20" as="geometry" />
        </mxCell>
        <mxCell id="ebc6phXdvRB4N1Q1j6TX-36" value="Online" style="rounded=1;whiteSpace=wrap;html=1;fillColor=#00CC00;strokeColor=none;fontColor=#FFFFFF;" vertex="1" parent="1">
          <mxGeometry x="220" y="410" width="60" height="20" as="geometry" />
        </mxCell>
        <mxCell id="ebc6phXdvRB4N1Q1j6TX-37" value="DND" style="rounded=1;whiteSpace=wrap;html=1;fillColor=#FF8000;strokeColor=none;fontColor=#FFFFFF;" vertex="1" parent="1">
          <mxGeometry x="220" y="450" width="60" height="20" as="geometry" />
        </mxCell>
        <mxCell id="ebc6phXdvRB4N1Q1j6TX-38" value="Offline" style="rounded=1;whiteSpace=wrap;html=1;fillColor=#FF3333;strokeColor=none;fontColor=#FFFFFF;" vertex="1" parent="1">
          <mxGeometry x="220" y="490" width="60" height="20" as="geometry" />
        </mxCell>
        <mxCell id="ebc6phXdvRB4N1Q1j6TX-39" value="Online" style="rounded=1;whiteSpace=wrap;html=1;fillColor=#00CC00;strokeColor=none;fontColor=#FFFFFF;" vertex="1" parent="1">
          <mxGeometry x="670" y="49.5" width="60" height="20" as="geometry" />
        </mxCell>
        <mxCell id="ebc6phXdvRB4N1Q1j6TX-40" value="&amp;lt;user 3&amp;gt; typing..." style="text;html=1;strokeColor=none;fillColor=none;align=left;verticalAlign=middle;whiteSpace=wrap;rounded=0;fontSize=14;fontColor=#B3B3B3;" vertex="1" parent="1">
          <mxGeometry x="310" y="200" width="430" height="30" as="geometry" />
        </mxCell>
      </root>
    </mxGraphModel>
  </diagram>
</mxfile>
